<?xml version="1.0" standalone="no"?>
<!DOCTYPE svg PUBLIC "-//W3C//DTD SVG 20010904//EN"
 "http://www.w3.org/TR/2001/REC-SVG-20010904/DTD/svg10.dtd">
<svg version="1.0" xmlns="http://www.w3.org/2000/svg"
 width="819.000000pt" height="819.000000pt" viewBox="0 0 819.000000 819.000000"
 preserveAspectRatio="xMidYMid meet">

<g transform="translate(0.000000,819.000000) scale(0.100000,-0.100000)"
fill="#000000" stroke="none">
<path d="M3558 6040 c-51 -15 -95 -50 -195 -153 -205 -212 -790 -777 -814
-785 -5 -2 -9 -8 -9 -14 0 -7 89 -9 268 -6 245 4 272 6 323 26 70 28 130 70
222 158 221 211 259 245 306 268 28 15 77 29 111 33 l60 6 -1 156 c0 93 -5
169 -12 188 -37 98 -156 154 -259 123z"/>
<path d="M4121 5629 c-24 -12 -99 -76 -167 -142 -115 -111 -124 -122 -124
-157 0 -35 -10 -47 -212 -241 -117 -112 -260 -249 -318 -305 -106 -101 -164
-145 -232 -176 -52 -24 -184 -39 -324 -36 -103 1 -125 -1 -164 -20 -107 -50
-110 -59 -110 -310 0 -241 -9 -222 105 -222 171 1 295 79 396 248 138 230 213
283 432 303 121 11 181 30 248 76 84 59 707 657 741 712 49 79 14 212 -69 261
-57 34 -146 38 -202 9z"/>
<path d="M5482 5625 c-29 -8 -73 -26 -97 -40 -38 -23 -197 -162 -360 -314 -27
-26 -149 -139 -270 -251 -121 -112 -268 -248 -327 -303 -161 -150 -242 -206
-343 -237 -25 -8 -141 -15 -316 -19 l-276 -6 -49 -30 c-33 -21 -60 -48 -81
-85 -33 -54 -33 -55 -33 -190 -1 -240 -24 -336 -106 -436 -48 -58 -131 -118
-203 -145 -46 -17 -88 -23 -231 -28 -184 -8 -214 -15 -268 -65 -56 -50 -67
-129 -33 -228 26 -75 60 -126 120 -180 70 -63 128 -89 220 -99 42 -4 471 -8
954 -8 l878 -1 57 38 c31 21 84 54 117 72 79 44 128 83 298 238 340 309 354
321 428 347 22 8 70 20 105 26 l64 11 0 313 c0 238 -3 316 -12 321 -7 5 -65 8
-128 8 -201 -1 -224 -16 -672 -436 -412 -386 -442 -411 -547 -454 -83 -33
-194 -44 -453 -44 l-228 0 0 265 0 265 283 0 c420 1 357 -32 902 470 132 122
350 318 380 342 99 80 203 112 358 112 l117 0 0 382 c0 293 -3 385 -12 390
-24 15 -182 14 -236 -1z"/>
<path d="M5604 3376 c-89 -22 -120 -44 -371 -271 -48 -44 -106 -94 -128 -112
l-40 -32 142 -1 c78 0 166 5 195 11 175 37 306 180 324 353 l7 66 -39 -1 c-22
0 -62 -6 -90 -13z"/>
<path d="M2895 2548 c-29 -16 -35 -28 -35 -70 0 -28 6 -42 26 -57 35 -28 56
-26 93 5 72 60 -2 168 -84 122z"/>
<path d="M4566 2538 c-24 -34 -24 -649 0 -672 20 -21 58 -20 89 0 l25 16 0
323 c0 299 -1 323 -18 338 -27 25 -78 22 -96 -5z"/>
<path d="M2405 2540 c-49 -19 -50 -24 -53 -346 -3 -294 -2 -304 17 -323 24
-24 69 -27 97 -7 16 12 20 30 24 123 l5 108 112 3 c107 3 113 4 133 29 22 28
19 54 -7 85 -13 14 -37 18 -127 20 l-111 3 -3 68 c-2 42 2 74 9 83 9 11 40 14
125 14 130 0 154 11 154 73 0 68 -25 77 -207 76 -81 0 -157 -4 -168 -9z"/>
<path d="M4166 2527 c-21 -21 -25 -37 -31 -138 -4 -63 -5 -200 -3 -305 3 -172
5 -194 22 -213 24 -27 70 -27 96 -1 17 17 20 34 21 110 1 50 2 96 3 103 1 8
25 13 76 15 100 3 115 7 128 37 17 36 15 52 -8 75 -17 17 -33 20 -104 20 -47
0 -87 3 -89 8 -3 4 -2 42 0 85 l6 77 77 0 c93 0 130 21 130 73 0 65 -27 77
-180 77 -114 0 -122 -1 -144 -23z"/>
<path d="M2889 2321 c-24 -19 -24 -23 -27 -225 -3 -196 -2 -206 17 -225 25
-25 68 -27 99 -5 22 15 22 20 22 220 0 204 0 205 -25 229 -29 30 -55 32 -86 6z"/>
<path d="M3099 2321 c-24 -19 -24 -21 -24 -224 0 -187 2 -207 19 -226 23 -25
78 -28 97 -5 9 11 16 59 19 143 7 134 14 157 61 185 38 23 73 20 106 -8 28
-24 28 -26 33 -166 4 -125 7 -143 24 -156 25 -18 67 -18 91 0 17 12 20 30 23
149 5 169 -9 227 -67 280 -64 57 -161 62 -235 12 -20 -13 -36 -20 -36 -15 0
19 -40 50 -64 50 -13 0 -34 -9 -47 -19z"/>
<path d="M3765 2330 c-83 -26 -134 -77 -120 -120 10 -31 47 -34 96 -10 70 36
169 12 169 -40 0 -14 -14 -18 -83 -22 -148 -10 -210 -56 -210 -156 0 -111 124
-172 252 -123 47 18 57 19 70 7 24 -21 53 -24 84 -9 l27 14 0 166 c0 159 -1
168 -25 209 -35 60 -82 86 -163 90 -37 2 -80 -1 -97 -6z m145 -313 c0 -28 -5
-36 -35 -50 -54 -26 -103 -23 -117 7 -6 14 -8 31 -5 40 6 15 69 33 125 35 30
1 32 -1 32 -32z"/>
<path d="M4911 2331 c-123 -32 -206 -180 -172 -307 14 -52 83 -131 136 -155
109 -50 260 4 315 112 24 46 27 153 6 203 -17 41 -68 99 -110 125 -37 23 -125
34 -175 22z m104 -135 c58 -25 85 -113 49 -164 -19 -28 -65 -52 -98 -52 -33 0
-82 43 -96 84 -20 63 33 142 98 145 7 1 28 -5 47 -13z"/>
<path d="M5248 2329 c-12 -6 -18 -22 -18 -44 0 -46 126 -407 147 -422 28 -21
87 -16 110 10 12 12 42 73 68 135 26 61 51 112 55 112 8 0 33 -55 70 -158 30
-83 54 -112 91 -112 52 0 86 25 104 77 10 27 25 71 35 98 10 28 31 86 48 130
43 115 47 142 26 166 -10 11 -30 19 -50 19 -42 0 -53 -16 -103 -155 -47 -128
-56 -140 -69 -94 -16 53 -58 162 -76 197 -18 35 -43 52 -78 52 -44 0 -65 -27
-113 -147 -25 -65 -50 -122 -55 -126 -4 -5 -24 42 -45 105 -52 157 -58 168
-98 168 -17 0 -40 -5 -49 -11z"/>
</g>
</svg>
